<?xml version="1.0" encoding="utf-8"?>
<!-- Generator: Adobe Illustrator 21.0.2, SVG Export Plug-In . SVG Version: 6.00 Build 0)  -->
<svg version="1.1" id="Layer_1" xmlns="http://www.w3.org/2000/svg" xmlns:xlink="http://www.w3.org/1999/xlink" x="0px" y="0px"
	 viewBox="0 0 136 136" style="enable-background:new 0 0 136 136;" xml:space="preserve">
<style type="text/css">
	.st0{fill:#046AB4;}
</style>
<path class="st0" d="M81.7,83.2c0-0.9-0.7-1.6-1.6-1.6c-0.9,0-1.6,0.7-1.6,1.6v3.2c0,0.9,0.7,1.6,1.6,1.6c0.9,0,1.6-0.7,1.6-1.6
	V83.2z"/>
<path class="st0" d="M80.1,100.7c-0.9,0-1.6,0.7-1.6,1.6v6.3c0,0.9,0.7,1.6,1.6,1.6c0.9,0,1.6-0.7,1.6-1.6v-6.3
	C81.7,101.4,81,100.7,80.1,100.7L80.1,100.7z"/>
<path class="st0" d="M88,64.2c0-0.9-0.7-1.6-1.6-1.6c-0.9,0-1.6,0.7-1.6,1.6v3.2c0,0.9,0.7,1.6,1.6,1.6c0.9,0,1.6-0.7,1.6-1.6V64.2z
	"/>
<path class="st0" d="M81.7,73.7c0-0.9-0.7-1.6-1.6-1.6c-0.9,0-1.6,0.7-1.6,1.6v3.2c0,0.9,0.7,1.6,1.6,1.6c0.9,0,1.6-0.7,1.6-1.6
	V73.7z"/>
<path class="st0" d="M81.7,92.7c0-0.9-0.7-1.6-1.6-1.6c-0.9,0-1.6,0.7-1.6,1.6v3.2c0,0.9,0.7,1.6,1.6,1.6c0.9,0,1.6-0.7,1.6-1.6
	V92.7z"/>
<path class="st0" d="M88,73.7c0-0.9-0.7-1.6-1.6-1.6c-0.9,0-1.6,0.7-1.6,1.6v3.2c0,0.9,0.7,1.6,1.6,1.6c0.9,0,1.6-0.7,1.6-1.6V73.7z
	"/>
<path class="st0" d="M75.3,64.2c0-0.9-0.7-1.6-1.6-1.6c-0.9,0-1.6,0.7-1.6,1.6v3.2c0,0.9,0.7,1.6,1.6,1.6c0.9,0,1.6-0.7,1.6-1.6
	V64.2z"/>
<path class="st0" d="M81.7,64.2c0-0.9-0.7-1.6-1.6-1.6c-0.9,0-1.6,0.7-1.6,1.6v3.2c0,0.9,0.7,1.6,1.6,1.6c0.9,0,1.6-0.7,1.6-1.6
	V64.2z"/>
<path class="st0" d="M88,48.4v-3.2c0-0.9-0.7-1.6-1.6-1.6c-0.9,0-1.6,0.7-1.6,1.6v3.2c0,0.9,0.7,1.6,1.6,1.6S88,49.3,88,48.4
	L88,48.4z"/>
<path class="st0" d="M75.3,73.7c0-0.9-0.7-1.6-1.6-1.6c-0.9,0-1.6,0.7-1.6,1.6v3.2c0,0.9,0.7,1.6,1.6,1.6c0.9,0,1.6-0.7,1.6-1.6
	V73.7z"/>
<path class="st0" d="M94.3,45.2c0-0.9-0.7-1.6-1.6-1.6c-0.9,0-1.6,0.7-1.6,1.6v3.2c0,0.9,0.7,1.6,1.6,1.6c0.9,0,1.6-0.7,1.6-1.6
	V45.2z"/>
<path class="st0" d="M73.7,81.7c-0.9,0-1.6,0.7-1.6,1.6v3.2c0,0.9,0.7,1.6,1.6,1.6c0.9,0,1.6-0.7,1.6-1.6v-3.2
	C75.3,82.4,74.6,81.7,73.7,81.7L73.7,81.7z"/>
<path class="st0" d="M100.7,92.7c0-0.9-0.7-1.6-1.6-1.6c-0.9,0-1.6,0.7-1.6,1.6v3.2c0,0.9,0.7,1.6,1.6,1.6c0.9,0,1.6-0.7,1.6-1.6
	V92.7z"/>
<path class="st0" d="M99.1,100.7c-0.9,0-1.6,0.7-1.6,1.6v6.3c0,0.9,0.7,1.6,1.6,1.6c0.9,0,1.6-0.7,1.6-1.6v-6.3
	C100.7,101.4,100,100.7,99.1,100.7L99.1,100.7z"/>
<path class="st0" d="M105.4,81.7c-0.9,0-1.6,0.7-1.6,1.6v3.2c0,0.9,0.7,1.6,1.6,1.6c0.9,0,1.6-0.7,1.6-1.6v-3.2
	C107,82.4,106.3,81.7,105.4,81.7L105.4,81.7z"/>
<path class="st0" d="M80.1,50c0.9,0,1.6-0.7,1.6-1.6v-6.7l15.8-4v26.5c0,0.7,0.4,1.3,1,1.5l11.6,4.4v16.3c0,0.9,0.7,1.6,1.6,1.6
	c0.9,0,1.6-0.7,1.6-1.6V69c0-0.7-0.4-1.3-1-1.5l-11.6-4.4V32.5c0-0.9-0.7-1.6-1.6-1.6c-0.9,0-1.6,0.7-1.6,1.6v1.9l-17.8,4.5
	c-0.7,0.2-1.2,0.8-1.2,1.5v7.9C78.5,49.3,79.2,50,80.1,50L80.1,50z"/>
<path class="st0" d="M107,73.7c0-0.9-0.7-1.6-1.6-1.6c-0.9,0-1.6,0.7-1.6,1.6v3.2c0,0.9,0.7,1.6,1.6,1.6c0.9,0,1.6-0.7,1.6-1.6V73.7
	z"/>
<path class="st0" d="M100.7,73.7c0-0.9-0.7-1.6-1.6-1.6c-0.9,0-1.6,0.7-1.6,1.6v3.2c0,0.9,0.7,1.6,1.6,1.6c0.9,0,1.6-0.7,1.6-1.6
	V73.7z"/>
<path class="st0" d="M88,92.7c0-0.9-0.7-1.6-1.6-1.6c-0.9,0-1.6,0.7-1.6,1.6v3.2c0,0.9,0.7,1.6,1.6,1.6c0.9,0,1.6-0.7,1.6-1.6V92.7z
	"/>
<path class="st0" d="M100.7,83.2c0-0.9-0.7-1.6-1.6-1.6c-0.9,0-1.6,0.7-1.6,1.6v3.2c0,0.9,0.7,1.6,1.6,1.6c0.9,0,1.6-0.7,1.6-1.6
	V83.2z"/>
<path class="st0" d="M86.4,100.7c-0.9,0-1.6,0.7-1.6,1.6v6.3c0,0.9,0.7,1.6,1.6,1.6c0.9,0,1.6-0.7,1.6-1.6v-6.3
	C88,101.4,87.3,100.7,86.4,100.7L86.4,100.7z"/>
<path class="st0" d="M88,83.2c0-0.9-0.7-1.6-1.6-1.6c-0.9,0-1.6,0.7-1.6,1.6v3.2c0,0.9,0.7,1.6,1.6,1.6c0.9,0,1.6-0.7,1.6-1.6V83.2z
	"/>
<path class="st0" d="M92.7,110.2c0.9,0,1.6-0.7,1.6-1.6V57.9c0-0.7-0.5-1.4-1.2-1.5l-25.3-6.3c-0.5-0.1-1,0-1.4,0.3
	s-0.6,0.8-0.6,1.2v34.8c0,0.9,0.7,1.6,1.6,1.6c0.9,0,1.6-0.7,1.6-1.6V53.6l22.2,5.5v49.4C91.2,109.5,91.9,110.2,92.7,110.2
	L92.7,110.2z"/>
<path class="st0" d="M56.3,54.7c0-0.9-0.7-1.6-1.6-1.6c-0.9,0-1.6,0.7-1.6,1.6v3.2c0,0.9,0.7,1.6,1.6,1.6c0.9,0,1.6-0.7,1.6-1.6
	V54.7z"/>
<path class="st0" d="M56.3,45.2c0-0.9-0.7-1.6-1.6-1.6c-0.9,0-1.6,0.7-1.6,1.6v3.2c0,0.9,0.7,1.6,1.6,1.6c0.9,0,1.6-0.7,1.6-1.6
	V45.2z"/>
<path class="st0" d="M43.7,92.7c0-0.9-0.7-1.6-1.6-1.6s-1.6,0.7-1.6,1.6v3.2c0,0.9,0.7,1.6,1.6,1.6s1.6-0.7,1.6-1.6V92.7z"/>
<path class="st0" d="M29.4,78.5c0.9,0,1.6-0.7,1.6-1.6V69h15.8v39.6c0,0.9,0.7,1.6,1.6,1.6c0.9,0,1.6-0.7,1.6-1.6V67.4
	c0-0.9-0.7-1.6-1.6-1.6h-19c-0.9,0-1.6,0.7-1.6,1.6v9.5C27.8,77.8,28.5,78.5,29.4,78.5L29.4,78.5z"/>
<path class="st0" d="M46.8,54.7v3.2c0,0.9,0.7,1.6,1.6,1.6c0.9,0,1.6-0.7,1.6-1.6v-3.2c0-0.9-0.7-1.6-1.6-1.6
	C47.5,53.2,46.8,53.9,46.8,54.7L46.8,54.7z"/>
<path class="st0" d="M56.3,35.7c0-0.9-0.7-1.6-1.6-1.6c-0.9,0-1.6,0.7-1.6,1.6v3.2c0,0.9,0.7,1.6,1.6,1.6c0.9,0,1.6-0.7,1.6-1.6
	V35.7z"/>
<path class="st0" d="M42.1,100.7c-0.9,0-1.6,0.7-1.6,1.6v6.3c0,0.9,0.7,1.6,1.6,1.6s1.6-0.7,1.6-1.6v-6.3
	C43.7,101.4,43,100.7,42.1,100.7L42.1,100.7z"/>
<path class="st0" d="M114.9,113.3h-3.2v-9.7c2.7-0.7,4.8-3.2,4.8-6.1c0-3.5-2.8-6.3-6.3-6.3s-6.3,2.8-6.3,6.3c0,2.9,2,5.4,4.8,6.1
	v9.7H69v-6.5c3.6-0.7,6.3-3.9,6.3-7.8c0-4.4-3.6-7.9-7.9-7.9c-4.4,0-7.9,3.6-7.9,7.9c0,3.8,2.7,7,6.3,7.8v6.5H31v-16
	c3.6-0.7,6.3-3.9,6.3-7.8c0-4.4-3.6-7.9-7.9-7.9c-4.4,0-7.9,3.6-7.9,7.9c0,3.8,2.7,7,6.3,7.8v16h-4.7c-0.9,0-1.6,0.7-1.6,1.6
	c0,0.9,0.7,1.6,1.6,1.6h91.8c0.9,0,1.6-0.7,1.6-1.6C116.5,114,115.8,113.3,114.9,113.3L114.9,113.3z M24.7,89.6
	c0-2.6,2.1-4.8,4.8-4.8c2.6,0,4.8,2.1,4.8,4.8c0,2.6-2.1,4.8-4.8,4.8C26.8,94.3,24.7,92.2,24.7,89.6L24.7,89.6z M62.7,99.1
	c0-2.6,2.1-4.8,4.8-4.8c2.6,0,4.7,2.1,4.7,4.8c0,2.6-2.1,4.8-4.7,4.8C64.8,103.8,62.7,101.7,62.7,99.1L62.7,99.1z M107,97.5
	c0-1.7,1.4-3.2,3.2-3.2s3.2,1.4,3.2,3.2c0,1.7-1.4,3.2-3.2,3.2S107,99.2,107,97.5L107,97.5z"/>
<path class="st0" d="M34.2,102.2v6.3c0,0.9,0.7,1.6,1.6,1.6s1.6-0.7,1.6-1.6v-6.3c0-0.9-0.7-1.6-1.6-1.6
	C34.9,100.7,34.2,101.4,34.2,102.2L34.2,102.2z"/>
<path class="st0" d="M43.7,73.7c0-0.9-0.7-1.6-1.6-1.6s-1.6,0.7-1.6,1.6v3.2c0,0.9,0.7,1.6,1.6,1.6s1.6-0.7,1.6-1.6V73.7z"/>
<path class="st0" d="M43.7,83.2c0-0.9-0.7-1.6-1.6-1.6s-1.6,0.7-1.6,1.6v3.2c0,0.9,0.7,1.6,1.6,1.6s1.6-0.7,1.6-1.6V83.2z"/>
<path class="st0" d="M34.2,73.7v3.2c0,0.9,0.7,1.6,1.6,1.6s1.6-0.7,1.6-1.6v-3.2c0-0.9-0.7-1.6-1.6-1.6
	C34.9,72.2,34.2,72.9,34.2,73.7L34.2,73.7z"/>
<path class="st0" d="M56.3,83.2c0-0.9-0.7-1.6-1.6-1.6c-0.9,0-1.6,0.7-1.6,1.6v3.2c0,0.9,0.7,1.6,1.6,1.6c0.9,0,1.6-0.7,1.6-1.6
	V83.2z"/>
<path class="st0" d="M62.7,64.2c0-0.9-0.7-1.6-1.6-1.6c-0.9,0-1.6,0.7-1.6,1.6v3.2c0,0.9,0.7,1.6,1.6,1.6c0.9,0,1.6-0.7,1.6-1.6
	V64.2z"/>
<path class="st0" d="M62.7,54.7c0-0.9-0.7-1.6-1.6-1.6c-0.9,0-1.6,0.7-1.6,1.6v3.2c0,0.9,0.7,1.6,1.6,1.6c0.9,0,1.6-0.7,1.6-1.6
	V54.7z"/>
<path class="st0" d="M62.7,73.7c0-0.9-0.7-1.6-1.6-1.6c-0.9,0-1.6,0.7-1.6,1.6v3.2c0,0.9,0.7,1.6,1.6,1.6c0.9,0,1.6-0.7,1.6-1.6
	V73.7z"/>
<path class="st0" d="M61.1,81.7c-0.9,0-1.6,0.7-1.6,1.6v3.2c0,0.9,0.7,1.6,1.6,1.6c0.9,0,1.6-0.7,1.6-1.6v-3.2
	C62.7,82.4,62,81.7,61.1,81.7L61.1,81.7z"/>
<path class="st0" d="M62.7,45.2c0-0.9-0.7-1.6-1.6-1.6c-0.9,0-1.6,0.7-1.6,1.6v3.2c0,0.9,0.7,1.6,1.6,1.6c0.9,0,1.6-0.7,1.6-1.6
	V45.2z"/>
<path class="st0" d="M56.3,92.7c0-0.9-0.7-1.6-1.6-1.6c-0.9,0-1.6,0.7-1.6,1.6v3.2c0,0.9,0.7,1.6,1.6,1.6c0.9,0,1.6-0.7,1.6-1.6
	V92.7z"/>
<path class="st0" d="M42.1,62.7c0.9,0,1.6-0.7,1.6-1.6V49.4l5.5-2.7c0.5-0.3,0.9-0.8,0.9-1.4V32l7.9-4l7.9,4v13.3
	c0,0.9,0.7,1.6,1.6,1.6c0.9,0,1.6-0.7,1.6-1.6V31c0-0.6-0.3-1.1-0.9-1.4l-8.6-4.3v-2.2c0-0.9-0.7-1.6-1.6-1.6
	c-0.9,0-1.6,0.7-1.6,1.6v2.2l-8.6,4.3c-0.5,0.3-0.9,0.8-0.9,1.4v13.3L41.4,47c-0.5,0.3-0.9,0.8-0.9,1.4v12.7
	C40.5,62,41.2,62.7,42.1,62.7L42.1,62.7z"/>
<path class="st0" d="M56.3,73.7c0-0.9-0.7-1.6-1.6-1.6c-0.9,0-1.6,0.7-1.6,1.6v3.2c0,0.9,0.7,1.6,1.6,1.6c0.9,0,1.6-0.7,1.6-1.6
	V73.7z"/>
<path class="st0" d="M54.7,100.7c-0.9,0-1.6,0.7-1.6,1.6v6.3c0,0.9,0.7,1.6,1.6,1.6c0.9,0,1.6-0.7,1.6-1.6v-6.3
	C56.3,101.4,55.6,100.7,54.7,100.7L54.7,100.7z"/>
<path class="st0" d="M62.7,35.7c0-0.9-0.7-1.6-1.6-1.6c-0.9,0-1.6,0.7-1.6,1.6v3.2c0,0.9,0.7,1.6,1.6,1.6c0.9,0,1.6-0.7,1.6-1.6
	V35.7z"/>
<path class="st0" d="M56.3,64.2c0-0.9-0.7-1.6-1.6-1.6c-0.9,0-1.6,0.7-1.6,1.6v3.2c0,0.9,0.7,1.6,1.6,1.6c0.9,0,1.6-0.7,1.6-1.6
	V64.2z"/>
</svg>
