<svg xmlns="http://www.w3.org/2000/svg" width="73" height="79" viewBox="0 0 73 79">
  <metadata><?xpacket begin="﻿" id="W5M0MpCehiHzreSzNTczkc9d"?>
<x:xmpmeta xmlns:x="adobe:ns:meta/" x:xmptk="Adobe XMP Core 5.6-c138 79.159824, 2016/09/14-01:09:01        ">
   <rdf:RDF xmlns:rdf="http://www.w3.org/1999/02/22-rdf-syntax-ns#">
      <rdf:Description rdf:about=""/>
   </rdf:RDF>
</x:xmpmeta>
                                                                                                    
                                                                                                    
                                                                                                    
                                                                                                    
                                                                                                    
                                                                                                    
                                                                                                    
                                                                                                    
                                                                                                    
                                                                                                    
                                                                                                    
                                                                                                    
                                                                                                    
                                                                                                    
                                                                                                    
                                                                                                    
                                                                                                    
                                                                                                    
                                                                                                    
                                                                                                    
                           
<?xpacket end="w"?></metadata>
<defs>
    <style>
      .cls-1 {
        fill: #0169b4;
        fill-rule: evenodd;
      }
    </style>
  </defs>
  <path class="cls-1" d="M1235.85,1061.92c-0.02,0-.04-0.01-0.06-0.01l-12.91-2.6a4.017,4.017,0,0,0-1.76-3.56l-1.93-1.3a25.238,25.238,0,0,0,7.2-18.14,28.969,28.969,0,0,0-.31-4.18h4.45a1.28,1.28,0,0,0,0-2.56h-1.44v-1.45a21.916,21.916,0,0,0-4.9-13.81,22.242,22.242,0,0,0-1.87-2.01v-0.56a1.274,1.274,0,0,0-1.27-1.28,1.232,1.232,0,0,0-.68.2,21.615,21.615,0,0,0-7.61-3.65,2.636,2.636,0,0,0-2.55-2.01h-5.42a2.636,2.636,0,0,0-2.55,2.01,21.615,21.615,0,0,0-7.61,3.65,1.232,1.232,0,0,0-.68-0.2,1.274,1.274,0,0,0-1.27,1.28v0.56a22.242,22.242,0,0,0-1.87,2.01,21.926,21.926,0,0,0-4.91,13.81v1.45h-1.43a1.28,1.28,0,0,0,0,2.56h4.45a28.969,28.969,0,0,0-.31,4.18,25.238,25.238,0,0,0,7.2,18.14l-1.93,1.3a4.017,4.017,0,0,0-1.76,3.56l-12.91,2.6c-0.02,0-.04.01-0.06,0.01a10.808,10.808,0,0,0-8.15,10.52v7.55a4,4,0,0,0,3.98,4.01h65.04a4,4,0,0,0,3.98-4.01v-7.55a10.808,10.808,0,0,0-8.15-10.52h0Zm-46.05.47,3.16-.64,5.11,10.29a1.434,1.434,0,0,0,1.1,1.02,1.231,1.231,0,0,0,.2.02,1.257,1.257,0,0,0,.89-0.37q0.66-.645,1.29-1.2a12.06,12.06,0,0,0,11.9,0q0.63,0.555,1.29,1.2a1.257,1.257,0,0,0,.89.37,1.231,1.231,0,0,0,.2-0.02,1.434,1.434,0,0,0,1.1-1.02l5.11-10.29,4.51,0.91v18.78H1189.8v-19.05Zm-2.54,19.05h-2.88v-17.96l2.88-.58v18.54Zm20.24-13.74a20.124,20.124,0,0,1,3.72,2.07,9.6,9.6,0,0,1-7.44,0,20.124,20.124,0,0,1,3.72-2.07h0Zm21.59-4.53,2.88,0.58v17.69h-2.88v-18.27Zm-8.89-3.44c-2.71,5.46-4.18,8.43-4.95,9.97a25.254,25.254,0,0,0-5.52-3.79l8.77-8.84,1.21,0.81a1.459,1.459,0,0,1,.49,1.85h0Zm6.35-31.61v1.45h-4.23v-13.51a19.294,19.294,0,0,1,4.23,12.06h0Zm-13.71,1.45v-19.88a19.157,19.157,0,0,1,6.94,3.76v16.12h-6.94Zm-8.05-22.01h5.42a0.079,0.079,0,0,1,.08.08v21.93h-5.59v-21.93a0.088,0.088,0,0,1,.09-0.08h0Zm-9.57,22.01v-16.12a19.157,19.157,0,0,1,6.94-3.76v19.88h-6.94Zm-6.77-1.45a19.294,19.294,0,0,1,4.23-12.06v13.51h-4.23v-1.45Zm35.05,4.01a25.261,25.261,0,0,1,.34,4.18v0.09c-0.02,0-.05-0.01-0.08-0.01h-4.15v-1.45a1.28,1.28,0,0,0-1.27-1.28h-8.13a1.28,1.28,0,0,0-1.27,1.28v0.36a3.975,3.975,0,0,0-2.88,0v-0.36a1.28,1.28,0,0,0-1.27-1.28h-8.13a1.28,1.28,0,0,0-1.27,1.28v1.45h-4.15c-0.03,0-.06.01-0.08,0.01v-0.09a25.261,25.261,0,0,1,.34-4.18h32Zm-32.21,6.82h4.1v0.09a1.27,1.27,0,1,0,2.54,0v-2.82h1.52v1.45a1.27,1.27,0,1,0,2.54,0v-1.45h1.53v2.82a1.27,1.27,0,1,0,2.54,0,1.44,1.44,0,1,1,2.88,0,1.27,1.27,0,1,0,2.54,0v-2.82H1213v1.45a1.27,1.27,0,1,0,2.54,0v-1.45h1.53v2.82a1.27,1.27,0,1,0,2.54,0v-0.09h4.1c-1.04,10.1-7.91,17.92-16.21,17.92s-15.17-7.82-16.21-17.92h0Zm16.21,20.48a15.844,15.844,0,0,0,6.44-1.38l-6.44,6.48-6.44-6.48a15.844,15.844,0,0,0,6.44,1.38h0Zm-12.21-1.55,1.21-.81,8.77,8.84a25.254,25.254,0,0,0-5.52,3.79c-0.77-1.54-2.24-4.51-4.95-9.97a1.459,1.459,0,0,1,.49-1.85h0Zm-21.75,22.11v-7.55a8.268,8.268,0,0,1,6.2-8.03l2.1-.42v17.45h-6.86a1.449,1.449,0,0,1-1.44-1.45h0Zm67.92,0a1.449,1.449,0,0,1-1.44,1.45h-5.51v-17.18l0.75,0.15a8.268,8.268,0,0,1,6.2,8.03v7.55Zm0,0-40.09-30.37a12.408,12.408,0,0,0,12.26,0,1.3,1.3,0,0,0,.34-1.78,1.253,1.253,0,0,0-1.76-.34,9.99,9.99,0,0,1-9.42,0,1.252,1.252,0,0,0-1.76.34,1.3,1.3,0,0,0,.34,1.78h0Zm0,0" transform="translate(-1171 -1005)"/>
</svg>
